<?xml version="1.0" encoding="UTF-8" standalone="no"?>
<!-- Svg Vector Icons : http://www.sfont.cn -->

<svg
   xmlns:dc="http://purl.org/dc/elements/1.1/"
   xmlns:cc="http://creativecommons.org/ns#"
   xmlns:rdf="http://www.w3.org/1999/02/22-rdf-syntax-ns#"
   xmlns:svg="http://www.w3.org/2000/svg"
   xmlns="http://www.w3.org/2000/svg"
   xmlns:sodipodi="http://sodipodi.sourceforge.net/DTD/sodipodi-0.dtd"
   xmlns:inkscape="http://www.inkscape.org/namespaces/inkscape"
   version="1.1"
   x="0px"
   y="0px"
   viewBox="0 0 1000 1000"
   enable-background="new 0 0 1000 1000"
   xml:space="preserve"
   id="svg22"
   sodipodi:docname="chicken.svg"
   inkscape:version="0.92.1 r15371"><defs
     id="defs26" /><sodipodi:namedview
     pagecolor="#ffffff"
     bordercolor="#666666"
     borderopacity="1"
     objecttolerance="10"
     gridtolerance="10"
     guidetolerance="10"
     inkscape:pageopacity="0"
     inkscape:pageshadow="2"
     inkscape:window-width="2560"
     inkscape:window-height="1490"
     id="namedview24"
     showgrid="false"
     inkscape:zoom="1.209"
     inkscape:cx="500"
     inkscape:cy="532.67163"
     inkscape:window-x="-12"
     inkscape:window-y="-12"
     inkscape:window-maximized="1"
     inkscape:current-layer="svg22" /><metadata
     id="metadata10"> Svg Vector Icons : http://www.sfont.cn <rdf:RDF><cc:Work
     rdf:about=""><dc:format>image/svg+xml</dc:format><dc:type
       rdf:resource="http://purl.org/dc/dcmitype/StillImage" /></cc:Work></rdf:RDF></metadata><g
     id="g20"><g
       transform="translate(0.000000,511.000000) scale(0.100000,-0.100000)"
       id="g18"><path
         d="M3935.7,4813.2v-194.8l-212.9-68.3c-247-78.3-556.3-228.9-783.2-385.6c-86.3-58.2-263.1-212.9-389.6-339.4c-463.9-461.9-733-988-829.4-1622.6l-24.1-154.6l-397.6-301.2l-399.6-299.2l391.6-196.8l391.6-194.8l10-959.9c10-1026.2,14.1-1074.4,124.5-1484.1c232.9-863.5,837.4-1626.6,1656.8-2094.6c249-142.6,636.6-301.2,903.7-371.5l190.8-48.2l6-283.2l6-283.2H4257h-321.3v-160.7V-4790h482h482v417.7v417.7l186.8-18.1c100.4-10,281.1-12.1,401.6-8l214.9,10v-249v-249h-321.3h-321.3v-160.7V-4790h482h482v429.8v429.7l186.8,44.2c1592.5,385.6,2763.3,1765.2,2855.7,3363.7c6,110.5,16.1,263.1,22.1,341.4l12.1,140.6l-239-232.9c-301.2-295.2-367.5-329.3-628.6-329.3c-365.5,0-580.4,138.6-708.9,453.8c-42.2,106.4-44.2,138.6-56.2,1213c-14.1,1223-18.1,1263.1-160.7,1670.8C6954,3736.8,6008.1,4522,5002,4650.5c-289.2,36.1-263.1,16.1-263.1,198.8V5010h-160.7h-160.7v-158.6c0-168.7-8-182.8-112.5-182.8c-46.2,0-48.2,4-48.2,170.7V5010h-160.7h-160.7V4813.2z M5110.4,4317.2c1088.4-243,1851.6-1058.3,2016.2-2152.8c14-88.4,22.1-526.1,22.1-1124.6c0-897.7,4-992,38.2-1126.6c56.2-210.9,134.5-355.5,281.1-510.1c295.2-313.3,799.3-425.7,1154.7-255c44.2,20.1,84.3,34.1,88.3,28.1c16.1-16.1-52.2-317.3-120.5-532.2c-78.3-255-287.2-668.7-451.8-903.7c-164.7-232.9-540.2-610.5-763.1-769.1c-803.3-570.3-1797.3-767.1-2797.4-552.3c-295.2,62.2-526.2,146.6-833.4,297.2c-841.4,415.7-1427.8,1146.7-1646.7,2050.4c-86.3,359.5-94.4,538.2-84.3,2026.3c6,1221,12.1,1413.8,42.2,1536.3c122.5,516.1,325.3,899.7,654.7,1243.1c417.7,437.8,909.7,684.8,1556.4,783.2C4391.5,4373.4,4973.9,4347.3,5110.4,4317.2z M1682.5,1467.5l-6-48.2l-86.3,44.2l-86.4,44.2l86.4,62.3l86.3,62.2l6-58.2C1686.5,1541.8,1686.5,1493.6,1682.5,1467.5z"
         id="path12" /><path
         d="M2999.8,2734.7c-96.4-36.2-194.8-112.5-251-192.8c-148.6-206.8-128.5-395.6,62.3-584.4c212.9-214.9,429.8-214.9,642.6,0c214.9,212.9,214.9,429.8,0,642.6C3305.1,2750.8,3156.5,2792.9,2999.8,2734.7z M3252.9,2399.3c26.1-26.1,40.2-66.3,40.2-120.5c0-106.4-54.2-160.7-160.7-160.7s-160.7,54.2-160.7,160.7c0,54.2,14.1,94.4,40.2,120.5c26.1,26.1,66.3,40.2,120.5,40.2S3226.8,2425.4,3252.9,2399.3z"
         id="path14" /><path
         d="M4779.1,1126.2C4088.3,977.5,3590.2,457.4,3471.8-239.4c-56.2-337.4,38.2-751.1,245-1066.3c253-389.6,668.7-660.7,1122.6-733c74.3-10,498-20.1,980-20.1h849.5l-6,929.8c-8,990-8,972-116.5,1263.2c-60.2,160.7-216.9,393.6-361.5,538.2c-212.9,212.9-459.9,353.4-763.1,433.8C5261.1,1148.2,4935.7,1158.3,4779.1,1126.2z M5351.4,802.8c361.5-76.3,690.8-327.3,851.5-654.7c132.5-269.1,142.6-347.4,142.6-1166.8v-718.9h-716.9c-821.4,0-899.7,10-1168.8,142.6C3702.7-1221.4,3538-145,4146.5,461.4C4451.8,768.7,4903.6,897.2,5351.4,802.8z"
         id="path16" /></g></g><path
     style="fill:#ffffff;stroke-width:0.82712984"
     d="m 519.52026,876.63031 c -37.65479,-1.58868 -76.44733,-9.39067 -109.10759,-21.94379 -60.30071,-23.17686 -106.3082,-56.00709 -142.938,-101.99835 -35.19805,-44.1936 -58.56933,-102.08242 -63.94848,-158.39537 -1.78417,-18.67799 -2.33927,-81.27476 -1.59534,-179.90074 0.75281,-99.80277 1.41167,-123.23376 3.78883,-134.74236 4.09889,-19.84398 12.30596,-43.12673 22.62401,-64.18237 11.70389,-23.88367 25.21823,-42.88066 44.63533,-62.7435 39.28139,-40.18314 81.25947,-62.629564 138.82943,-74.234548 15.97581,-3.220411 30.2629,-3.836094 57.28482,-2.468614 33.56604,1.698654 41.76407,2.901426 62.70059,9.199109 44.24596,13.30913 84.30748,37.933953 114.51963,70.392363 10.86876,11.67686 15.84607,18.02019 25.54819,32.5599 23.37704,35.0331 38.97536,80.34281 41.28843,119.93383 0.45183,7.73367 1.15281,55.00414 1.55772,105.04549 0.81105,100.23393 0.70239,98.20052 6.13388,114.77422 5.92706,18.08587 14.9331,32.38997 28.88565,45.87846 12.08184,11.67998 24.72395,19.35752 40.53609,24.61751 13.45749,4.4767 20.95961,5.72895 34.46773,5.75335 14.55525,0.0263 22.2692,-1.42583 35.18049,-6.62254 9.89895,-3.98427 11.13878,-4.26519 11.13878,-2.5238 0,5.08227 -7.73971,36.77434 -12.84921,52.61412 -7.72595,23.95093 -27.65835,64.15486 -42.72437,86.17569 -8.42755,12.31788 -21.85493,27.72342 -39.51632,45.33796 -24.54289,24.47781 -37.25463,34.65538 -60.82407,48.69847 -59.90111,35.6901 -124.4265,51.77905 -195.61622,48.77551 z M 667.15188,690.03309 c -0.21688,-14.89868 -0.58331,-51.84037 -0.8143,-82.09264 -0.55342,-72.4821 -1.20374,-81.09053 -7.56066,-100.08272 -12.06093,-36.0337 -39.32278,-69.86423 -72.00267,-89.35155 -16.92164,-10.09053 -39.40041,-18.35027 -56.5013,-20.76118 -10.29941,-1.45201 -43.13234,-1.50521 -50.63919,-0.082 -13.28172,2.518 -30.13365,8.36667 -44.06718,15.29405 -49.76771,24.74317 -83.80961,74.35785 -89.8007,130.88087 -3.27093,30.85959 7.46765,71.0055 26.56521,99.31341 21.26316,31.51794 50.79334,53.90541 87.14769,66.06858 21.54882,7.20964 27.91196,7.57342 135.9155,7.77023 l 72.15192,0.1315 z M 325.88433,329.25092 c 9.79836,-3.90328 22.44332,-14.72223 28.88006,-24.70961 5.20738,-8.07989 7.03989,-14.5455 6.61879,-23.35306 -0.31511,-6.59073 -0.69824,-8.0073 -3.92943,-14.52812 -2.97798,-6.00979 -4.98799,-8.641 -11.94796,-15.6404 -7.10093,-7.14118 -9.48514,-8.96659 -15.74947,-12.05818 l -7.38181,-3.64311 -9.16079,0.0108 c -8.0443,0.01 -9.78433,0.27701 -14.277,2.19499 -22.57667,9.63823 -37.83518,33.84303 -33.34104,52.88938 3.84577,16.29851 22.24346,35.32498 38.79788,40.12386 5.37711,1.55874 15.93482,0.92669 21.49077,-1.28658 z"
     id="path28"
     inkscape:connector-curvature="0" /><path
     style="fill:#ffffff;stroke-width:0.82712984"
     d="m 305.31053,296.98098 c -5.33292,-2.72499 -6.93556,-5.38614 -7.31781,-12.15109 -0.17677,-3.12836 0.0995,-6.96326 0.61392,-8.52199 1.78337,-5.40366 7.46347,-8.89682 14.46683,-8.89682 10.23979,0 15.62307,5.41512 15.62307,15.71547 0,5.79405 -1.25392,9.15638 -4.50712,12.08559 -4.44057,3.99834 -12.95451,4.79605 -18.87889,1.76884 z"
     id="path30"
     inkscape:connector-curvature="0" /><path
     style="fill:#ffffff;stroke-width:0.82712984"
     d="m 498.36238,683.40181 c -21.48064,-1.17112 -33.94689,-4.31155 -50.93456,-12.83119 -25.43443,-12.75585 -43.03754,-30.35353 -55.66281,-55.64567 -13.57434,-27.1934 -17.28936,-60.84367 -9.96659,-90.27648 11.8081,-47.46094 47.34666,-82.40818 94.70478,-93.129 36.18707,-8.19194 71.82151,-1.67581 102.60946,18.76319 9.57279,6.35504 26.7418,23.27113 32.65415,32.17313 5.83623,8.78739 13.22299,23.80706 16.05223,32.63939 1.32856,4.14748 3.02601,11.6227 3.7721,16.6116 1.80855,12.09308 2.83972,50.59817 2.87333,107.29239 l 0.0268,45.28536 -62.24153,-0.12389 c -34.23283,-0.0682 -67.48217,-0.40961 -73.88741,-0.75883 z"
     id="path32"
     inkscape:connector-curvature="0" /><path
     style="fill:#ffffff;stroke-width:0.82712984"
     d="m 158.96481,364.22604 -7.78457,-3.91366 6.54387,-4.79712 c 3.59914,-2.63841 7.03751,-5.186 7.64083,-5.66131 0.78966,-0.62211 1.30746,-0.53154 1.84838,0.32331 0.89531,1.41489 1.01567,15.66565 0.14374,17.01915 -0.41859,0.64977 -3.03003,-0.27453 -8.39225,-2.97037 z"
     id="path34"
     inkscape:connector-curvature="0" /></svg>