<?xml version="1.0" encoding="UTF-8" standalone="no"?>
<!-- Svg Vector Icons : http://www.sfont.cn -->

<svg
   xmlns:dc="http://purl.org/dc/elements/1.1/"
   xmlns:cc="http://creativecommons.org/ns#"
   xmlns:rdf="http://www.w3.org/1999/02/22-rdf-syntax-ns#"
   xmlns:svg="http://www.w3.org/2000/svg"
   xmlns="http://www.w3.org/2000/svg"
   xmlns:sodipodi="http://sodipodi.sourceforge.net/DTD/sodipodi-0.dtd"
   xmlns:inkscape="http://www.inkscape.org/namespaces/inkscape"
   version="1.1"
   x="0px"
   y="0px"
   viewBox="0 0 1000 1000"
   enable-background="new 0 0 1000 1000"
   xml:space="preserve"
   id="svg78"
   sodipodi:docname="egg.svg"
   inkscape:version="0.92.1 r15371"><defs
     id="defs82" /><sodipodi:namedview
     pagecolor="#ffffff"
     bordercolor="#666666"
     borderopacity="1"
     objecttolerance="10"
     gridtolerance="10"
     guidetolerance="10"
     inkscape:pageopacity="0"
     inkscape:pageshadow="2"
     inkscape:window-width="2560"
     inkscape:window-height="1490"
     id="namedview80"
     showgrid="false"
     inkscape:zoom="0.236"
     inkscape:cx="500"
     inkscape:cy="502.11864"
     inkscape:window-x="-12"
     inkscape:window-y="-12"
     inkscape:window-maximized="1"
     inkscape:current-layer="svg78" /><metadata
     id="metadata36"> Svg Vector Icons : http://www.sfont.cn <rdf:RDF><cc:Work
     rdf:about=""><dc:format>image/svg+xml</dc:format><dc:type
       rdf:resource="http://purl.org/dc/dcmitype/StillImage" /></cc:Work></rdf:RDF></metadata><g
     id="g76"><g
       id="g44"><g
         id="g42"><path
           d="M780.8,235.4C747.2,172,709.1,120.8,667.6,83.1c-24.3-22.1-49.8-39.4-75.8-51.4c-30-13.9-60.9-20.9-91.8-20.9c-30.9,0-61.8,7-91.8,20.9c-26,12-51.5,29.3-75.8,51.4c-41.5,37.7-79.5,88.9-113.1,152.3c-29.6,55.9-54.5,119.3-72,183.4c-17.5,64.3-26.8,126.5-26.8,179.9c0,55.5,9.9,108.3,29.4,156.8c19,47.3,46.5,89.2,81.7,124.5C301.7,950.4,397,989.2,500,989.2c103,0,198.3-38.8,268.4-109.1c35.2-35.4,62.7-77.3,81.7-124.5c19.5-48.5,29.4-101.3,29.4-156.8c0-53.4-9.3-115.6-26.8-179.9C835.3,354.7,810.4,291.3,780.8,235.4z M500,918.8c-170.7,0-309.2-129.2-309.2-320.1c0-190.9,138.4-517.6,309.2-517.6c170.7,0,309.2,326.6,309.2,517.6C809.2,789.7,670.7,918.8,500,918.8z"
           id="path38" /><path
           d="M500,990c-103.2,0-198.8-38.8-269-109.4c-35.3-35.4-62.9-77.4-81.9-124.8c-19.5-48.6-29.4-101.5-29.4-157.1c0-53.4,9.3-115.7,26.8-180.1c17.5-64.2,42.4-127.6,72-183.6c33.6-63.5,71.8-114.8,113.3-152.5c24.4-22.1,49.9-39.5,76-51.5c30.1-13.9,61.1-21,92.2-21c31.1,0,62.1,7.1,92.2,21c26.1,12.1,51.7,29.4,76,51.5c41.5,37.7,79.6,89,113.3,152.5c29.7,56,54.6,119.5,72,183.6c17.5,64.4,26.8,126.7,26.8,180.1c0,55.6-9.9,108.5-29.4,157.1c-19,47.4-46.6,89.3-81.9,124.8C698.8,951.2,603.2,990,500,990z M500,11.6c-30.8,0-61.6,7-91.5,20.8c-25.9,12-51.4,29.2-75.6,51.3c-41.4,37.6-79.4,88.8-112.9,152.1C190.3,291.6,165.5,355,148,419.1c-17.5,64.3-26.7,126.4-26.7,179.7c0,55.4,9.9,108.1,29.3,156.5c18.9,47.2,46.4,89,81.5,124.2c70,70.2,165.1,108.9,267.9,108.9c102.8,0,197.9-38.7,267.9-108.9c35.2-35.3,62.6-77.1,81.5-124.2c19.4-48.4,29.3-101.1,29.3-156.5c0-53.3-9.2-115.4-26.7-179.7c-17.4-64-42.3-127.4-71.9-183.3c-33.6-63.3-71.6-114.5-112.9-152.1c-24.2-22-49.7-39.3-75.6-51.3C561.6,18.6,530.8,11.6,500,11.6z M500,919.6c-84.4,0-162.2-31.5-219.2-88.7C222.3,772.2,190,689.7,190,598.7c0-97.1,35.6-226.9,90.6-330.8c29.4-55.5,63.4-101.6,98.4-133.4c39.6-36,80.3-54.2,120.9-54.2c40.6,0,81.3,18.2,120.9,54.2c35,31.8,69,77.9,98.4,133.4C774.4,371.8,810,501.7,810,598.7c0,91-32.2,173.5-90.8,232.2C662.2,888.1,584.4,919.6,500,919.6z M500,82c-40.2,0-80.5,18.1-119.8,53.8c-34.9,31.7-68.8,77.6-98.1,132.9c-54.9,103.6-90.5,233.2-90.5,330c0,90.5,32.1,172.6,90.3,231.1c56.7,56.9,134.1,88.2,218,88.2c83.9,0,161.4-31.3,218-88.2c58.2-58.5,90.3-140.5,90.3-231.1c0-96.8-35.5-226.3-90.5-330c-29.3-55.3-63.2-101.3-98.1-132.9C580.5,100.1,540.2,82,500,82z"
           id="path40" /></g></g><g
       id="g46" /><g
       id="g48" /><g
       id="g50" /><g
       id="g52" /><g
       id="g54" /><g
       id="g56" /><g
       id="g58" /><g
       id="g60" /><g
       id="g62" /><g
       id="g64" /><g
       id="g66" /><g
       id="g68" /><g
       id="g70" /><g
       id="g72" /><g
       id="g74" /></g><path
     style="fill:#ffffff;stroke-width:4.237288"
     d="M 432.62712,908.98369 C 282.1707,875.86191 184.7832,739.58644 194.58679,575.89106 203.47928,427.40847 278.92263,242.07056 366.94915,152.457 453.39369,64.453952 538.5154,62.229761 624.7678,145.72032 c 69.02957,66.81919 126.78703,177.40519 159.67419,305.72212 31.93059,124.58472 27.96708,211.72739 -13.5597,298.12714 -25.5928,53.24779 -75.17797,104.40906 -126.91564,130.94978 -62.40751,32.0142 -144.8034,43.1117 -211.33953,28.46433 z"
     id="path84"
     inkscape:connector-curvature="0" /></svg>